PathFileType	4	(X/Y/Z)	Patient4_TMGait_0pt7_02_right_12.trc.trc
DataRate	CameraRate	NumFrames	NumMarkers	Units	OrigDataRate	OrigDataStartFrame	OrigNumFrames
86.956521739130	86.956521739130	5	33	mm	86.956521739130	18	       141
Frame#	Time	Sacral			L.Shoulder			Chest			R.Shoulder			Neck			R.ASIS			L.ASIS			R.Thigh.Superior			R.Thigh.Lateral			R.Thigh.Inferior			R.Patella			L.Thigh.Superior			L.Thigh.Lateral			L.Thigh.Inferior			L.Patella			L.Shank.Superior			L.Shank.Lateral			L.Shank.Inferior			R.Shank.Superior			R.Shank.Lateral			R.Shank.Inferior			R.Heel			R.Midfoot.Superior			R.Midfoot.Lateral			R.Toe			L.Heel			L.Midfoot.Lateral			L.Midfoot.Superior			L.Toe			L.Elbow			L.Wrist			R.Elbow			R.Wrist			
		X1	Y1	Z1	X2	Y2	Z2	X3	Y3	Z3	X4	Y4	Z4	X5	Y5	Z5	X6	Y6	Z6	X7	Y7	Z7	X8	Y8	Z8	X9	Y9	Z9	X10	Y10	Z10	X11	Y11	Z11	X12	Y12	Z12	X13	Y13	Z13	X14	Y14	Z14	X15	Y15	Z15	X16	Y16	Z16	X17	Y17	Z17	X18	Y18	Z18	X19	Y19	Z19	X20	Y20	Z20	X21	Y21	Z21	X22	Y22	Z22	X23	Y23	Z23	X24	Y24	Z24	X25	Y25	Z25	X26	Y26	Z26	X27	Y27	Z27	X28	Y28	Z28	X29	Y29	Z29	X30	Y30	Z30	X31	Y31	Z31	X32	Y32	Z32	X33	Y33	Z33	

18	13.015500000000	747.324102915972	1001.511319460046	441.568382446621	948.231904142722	1430.367996799376	274.898119909744	1041.523623839304	1354.162502923493	439.957113093241	951.878271627722	1432.813222896031	608.128918393374	944.630593905879	1486.913007319564	427.445573807823	965.449267050013	937.516138315868	574.983010951993	971.949292091848	958.271720964623	298.278841662477	1051.861554817892	780.592560855342	547.945975278820	1016.868316538232	654.289000726859	621.874715101568	1111.738929105907	626.678696728458	544.820995214002	1152.662752413801	542.068749747768	563.355960540218	979.823539450699	731.028737747754	331.964455239108	869.186013314749	634.268436363133	262.426361951752	924.836462797862	542.251362304091	332.416019535183	909.623322575744	476.320330499774	342.226829217586	879.286257543236	408.686724061808	331.764130658865	782.603976147689	301.915667392647	277.707494789033	818.111441339568	188.509983658461	354.299042808191	1134.425882004751	450.496300141918	572.159802853116	1078.413266857268	336.979357774986	634.091418817990	1148.009352701599	250.420331191395	583.795279262941	1056.183727758763	61.534601808167	553.920432071794	1217.358748329591	139.247837631973	596.635256200690	1141.292145050240	58.285483299674	625.604669765906	1342.671999150061	104.735685255481	619.082296193333	679.797059568059	38.043810968631	394.172390170748	753.257871852607	34.971153341362	313.066829469866	836.412039589631	95.363390794216	341.232674419055	964.867470288326	44.197315526083	311.046189362249	997.109988489088	1097.848750443892	137.031734803024	1246.374666575734	1107.574547708739	181.789341683759	819.175447738961	1117.156591140237	730.594739537926	780.309835948726	858.352602000741	738.246517687841	
19	13.027000000000	749.865347974600	999.472217526665	442.986266272930	948.928469110672	1428.579800786641	276.289331372392	1042.568888602870	1352.954276729799	441.424328647944	952.603897790676	1431.658771620519	609.422981899532	945.334076762351	1485.269831484070	428.681843925989	968.005479450916	935.529985954431	576.510184672514	974.616601591646	956.534197620864	300.020883417158	1052.607773646925	775.981706000781	550.040304905467	1014.715435296619	649.639966389959	622.669530959835	1109.625097702854	621.326552532054	546.057213619218	1148.956823266230	537.484873596176	563.621437750853	979.958246602371	728.773210520594	332.887428148391	867.739376037915	633.364714278403	263.457604363646	922.369802228692	540.587409434668	333.109068540433	906.366547564401	474.522673829761	342.859234457083	875.192832824747	407.400037073499	332.367896477551	777.078741719777	301.895823064391	278.128534377470	811.261918630935	187.846975940852	354.421479210898	1132.310718255525	446.042905492087	572.258215275811	1077.882204862962	331.209349694139	633.101398867224	1149.464966653181	246.200029745357	582.733585819209	1061.111729526088	56.226862155048	551.457522984796	1220.909176445394	135.761042055163	594.825122593702	1145.886616008722	54.037850484778	623.494124658448	1346.695473127772	103.009053492396	617.929400947201	671.694262997839	37.984506393282	394.140048793982	745.182784737063	34.885031954591	313.093759711515	828.461766619649	95.199105625598	341.266562081607	956.879953414780	43.738302736877	311.031677884753	998.245809093051	1095.844014906849	138.932194266295	1246.134904671334	1116.058074954811	185.234700147069	813.147893874345	1120.110086228413	732.123877654052	769.981175164406	862.042890915976	739.187003889986	
20	13.038500000000	752.561975651891	997.320874807422	444.701669048294	949.596889541675	1426.579405688415	277.717316937908	1043.675039223067	1351.696822145673	442.956913735553	953.353653191173	1430.475460349234	610.792558635143	946.016601153114	1483.529544923544	429.960624196942	970.774562680282	933.432725230393	578.242102392533	977.418786818371	954.621676868325	302.087831519927	1053.737800456653	771.384365706365	552.239890636129	1012.919818979110	645.001360348856	623.236958118338	1107.929597925015	616.071078621886	547.154487636269	1145.461914655386	532.635539499568	563.679145223106	980.456973448027	726.460220916842	333.948499397868	866.708742944396	632.353573570136	264.724549633534	920.467231923957	538.808433143390	333.952533565351	903.729483310016	472.521319583183	343.625469646789	871.561518456315	405.953959464364	333.104979846287	771.848438094473	301.908141702235	278.664876157620	804.555819528189	187.143659635616	354.554507050971	1129.904401058624	441.264815076845	572.082008647957	1076.155301736112	325.532105103835	631.589435914868	1149.096358691669	241.650583197580	581.208208039280	1062.671510999739	51.798877071543	548.355647446482	1221.717439442652	131.515678059286	592.478283469495	1146.905507311656	50.046253938502	620.916527324415	1347.522888627733	99.252471237657	616.507161234247	663.573458089898	37.938847249415	394.067039505783	737.119142276386	34.776751695339	313.110688804677	820.546526776984	95.037255422021	341.263162894110	948.927253909903	43.246529271748	310.999443976774	999.020608642464	1093.444847162274	140.915075900947	1245.298637361010	1123.053011236329	188.644238059793	807.795171614991	1122.798810527800	733.537608489998	760.954347196590	865.357433390216	740.140725026370	
21	13.050000000000	755.367274563345	995.129911470165	446.694587454988	950.286544111188	1424.415688328641	279.190197737010	1044.863790541585	1350.415116943101	444.570240550488	954.148359161832	1429.286082507298	612.252125723307	946.722273436340	1481.742515870613	431.300244317335	973.699425353696	931.293975232588	580.183095766296	980.315845532182	952.601772268628	304.443527635343	1055.232899634594	766.899144202315	554.530657121526	1011.483878977217	640.487313885292	623.593701062151	1106.660353844954	611.037030524573	548.117734845029	1142.264840381965	527.681980475580	563.514200242769	981.326674607134	724.148060124204	335.157064180893	866.118595672504	631.255540944061	266.236321945888	919.175683140256	536.939522096785	334.956800905063	901.780975929418	470.328099612053	344.519495878358	868.430627377089	404.362072095362	333.977966734680	766.952476933430	301.990099891157	279.321369294445	798.017184903219	186.439383599584	354.692616192563	1127.341499031985	436.325226940242	571.623191114142	1073.532303142300	320.052705540602	629.704226511757	1147.196119085547	236.880372554292	579.285378043104	1061.205276248705	48.208819204579	544.889311168623	1220.180247651428	126.674487565740	589.668912692912	1144.798341466054	46.394188588978	618.072316924338	1345.633012132406	93.716377860705	614.764792506608	655.437606092327	37.984459969371	393.935469399815	729.071387851125	34.675454808178	313.106792335322	812.689680029411	94.890057941410	341.201761113807	941.011545328070	42.729780048317	310.943105441767	999.403747265111	1090.710049810765	142.976400001837	1243.970376172159	1128.542657027834	192.015978867882	803.257903904596	1125.092073417168	734.837027221285	753.280628770478	868.170097168432	741.121737665233	
22	13.061500000000	758.224239023733	992.989085906944	448.933976203732	951.054642736223	1422.159325068829	280.716270348464	1046.158631620383	1349.146260075478	446.278372245176	955.016819878800	1428.128241287646	613.813378364483	947.506623631772	1479.977482787271	432.716505871218	976.713638150319	929.206713219017	582.331862375477	983.256215454670	950.555428874144	307.036241075278	1057.051736046068	762.640745200416	556.896082814769	1010.414089101848	636.240479956440	623.799681232347	1105.801522819888	606.361862853293	548.961408382750	1139.446534305527	522.818150246343	563.138969211714	982.557475823066	721.913668969650	336.523803580071	865.991307816303	630.101652277317	267.995721203337	918.549681912588	535.024148389678	336.129485603215	900.599287180916	467.970283428587	345.526624222132	865.850061731540	402.655014363725	334.980713583568	762.441443648525	302.197421995299	280.098545546594	791.685288909901	185.790908944295	354.827054076978	1124.766702932042	431.424189451099	570.915257085331	1070.362139418734	314.915654881936	627.647045873350	1144.118105780316	232.060496177822	577.079474661760	1057.200286695536	45.418342697990	541.365628329056	1216.767514989780	121.496390707404	586.529239134989	1140.154834847917	43.192540728455	615.189729337122	1341.587504799407	86.839042281846	612.702985875379	647.300603338227	38.240453507244	393.728708749180	721.048219770958	34.633893522976	313.070031978602	804.927500010253	94.774085799732	341.059685613136	933.131813459104	42.195768064084	310.857807433271	999.352964943252	1087.718402028327	145.120474098648	1242.244202227277	1132.531257406607	195.347733846426	799.671132232570	1126.880720148994	736.037870481284	747.033749623764	870.378622159637	742.121011895952	
